<svg height="30" viewBox="0 0 30 30" width="30" xmlns="http://www.w3.org/2000/svg"><g fill="#919ef8"><path d="m13.5 14.3v3.3c.1.5.9.8 1.8.7.7-.1 1-.4 1-1v-5.9c0-.5.2-.5.5-.4a14.91 14.91 0 0 1 3.7 1.4c2.3 1.1 4.7 2.1 7 3.2a3.59 3.59 0 0 1 1 .7 1.12 1.12 0 0 1 .1 1.6l-.1.1a4.87 4.87 0 0 1 -1.8 1.1c-2.6 1.2-5.2 2.4-7.7 3.5a9.12 9.12 0 0 1 -7.9 0c-2.5-1.1-5.1-2.3-7.6-3.5a7.14 7.14 0 0 1 -1.5-.8 1.26 1.26 0 0 1 0-2.3 19.65 19.65 0 0 1 2.5-1.3l6.6-3a8.08 8.08 0 0 1 2.2-.7c.3-.1.4 0 .4.3a15.14 15.14 0 0 0 -.2 3zm-7.1 1.6a2.82 2.82 0 0 0 -1.5.4.84.84 0 0 0 -.4 1.1c.1.2.2.4.4.4a3.12 3.12 0 0 0 3.1 0 .8.8 0 0 0 .3-1.1l-.3-.3a2.2 2.2 0 0 0 -1.6-.5z"/><path d="m15.1 27.9a13.05 13.05 0 0 1 -4.7-1.2c-2.5-1.2-5.1-2.3-7.7-3.5-.2-.1-.3-.2-.5-.2a2.07 2.07 0 0 1 -1.1-2.6.42.42 0 0 1 .6-.3c1 .5 2 .9 3 1.4 2.3 1 4.6 2.2 7 3.1a9.26 9.26 0 0 0 7.3-.3c2.6-1.1 5.1-2.3 7.7-3.5l1.6-.7c.4-.2.6 0 .6.4.1 1.4-.1 2-1.4 2.6-2 1-4 1.9-6 2.8a25.44 25.44 0 0 1 -3.8 1.6 7.46 7.46 0 0 1 -2.6.4z"/><path d="m18.9 5.9a3.85 3.85 0 0 1 -7.7.1 3.85 3.85 0 1 1 7.7-.1z"/></g><path d="m0 0h30v30h-30z" fill="none"/></svg>