<svg height="30" viewBox="0 0 30 30" width="30" xmlns="http://www.w3.org/2000/svg"><g fill="#919ef8"><path d="m27.4 8.5a13.8 13.8 0 0 0 -8-6.8 15.47 15.47 0 0 0 -3.1-.6l-.9-.1h-1a13.45 13.45 0 0 0 -9.7 4.5 13 13 0 0 0 -3.4 6.3 17.33 17.33 0 0 0 -.3 3.2 13.49 13.49 0 0 0 4.5 10.3 13.18 13.18 0 0 0 6.5 3.4 18.1 18.1 0 0 0 2.3.3h1.2a13.8 13.8 0 0 0 12.6-9.2 13.23 13.23 0 0 0 .8-3.3 13.25 13.25 0 0 0 -1.5-8zm-12.2 18a11.5 11.5 0 1 1 -.4-23 11.65 11.65 0 0 1 11.8 11.3 11.59 11.59 0 0 1 -11.4 11.7z"/><path d="m4.6 18.6.9-.3 1.7-.6a.37.37 0 0 1 .3.1 3.39 3.39 0 0 1 .3.8c.1.3 0 .2-.1.3l-2.3 1.2c-.1 0-.2.1-.2 0z"/><path d="m5.5 15h1.3c.1 0 .2 0 .2.2a3.08 3.08 0 0 0 .1.9c0 .1 0 .2-.1.2l-2.4.4c-.3 0-.3 0-.4-.3a4.3 4.3 0 0 1 -.2-1.2c0-.2.1-.2.2-.2z"/><path d="m24.5 15h1.3c.1 0 .2 0 .2.2a6.15 6.15 0 0 1 -.1 1.3c0 .3-.1.3-.3.2l-1.8-.3-.6-.1c-.2 0-.2-.1-.2-.3s.1-.6.1-.8.1-.2.3-.2z"/><path d="m6.3 8.3 1.5 1.2.7.5c.1.1.2.2.1.3l-.6.9-2.7-1.5a12.13 12.13 0 0 1 1-1.4z"/><path d="m22.4 7-1.9 2a.19.19 0 0 1 -.3 0l-.7-.5c-.1 0-.1-.1-.1-.2.5-.7 1-1.5 1.5-2.2.1-.2.2-.2.3-.1z"/><path d="m8.9 5.8 1 1.5.5.8c.1.2.1.3-.1.4s-.3.3-.5.5-.3.1-.4 0l-1.4-1.6-.3-.3c-.1-.1-.2-.2 0-.2a13.07 13.07 0 0 1 1.2-1.1z"/><path d="m17 7.2a3.55 3.55 0 0 0 .2-1c.1-.6.3-1.1.4-1.6 0-.2.1-.2.3-.2l1.2.4c.2.1.2.1.1.3a22.88 22.88 0 0 0 -1 2.3c-.1.2-.1.2-.4.2a1.49 1.49 0 0 1 -.7-.3.1.1 0 0 0 -.1-.1z"/><path d="m10.5 25h-.2l-1.1-.6c-.2-.2-.2-.2 0-.4.4-.7.9-1.4 1.4-2.1.1-.1.2-.2.3-.1a4.35 4.35 0 0 0 .7.4c.2.1.2.1.1.3a24.43 24.43 0 0 0 -1 2.4c-.1 0-.1.1-.2.1z"/><path d="m13 7.2-.1.1-.9.3c-.3.1-.2-.1-.2-.2-.3-.7-.6-1.3-.9-2l-.2-.4c0-.1 0-.2.1-.2l1.4-.5c.1 0 .1 0 .1.1.2.6.3 1.3.5 1.9a2.92 2.92 0 0 0 .2.9z"/><path d="m15.7 23.3c0-.3 0-.3.3-.4l.7-.1c.1 0 .2 0 .3.2.2.8.4 1.7.6 2.5 0 .1 0 .2-.2.2l-1.3.3c-.2 0-.2-.1-.2-.2s-.1-.5-.1-.7a10.28 10.28 0 0 0 -.1-1.8z"/><path d="m22.6 17.6.2.1 2.3.8c.3.1.3.1.2.4l-.5 1.1c-.1.1-.1.1-.3.1l-2.3-1.2c-.1-.1-.2-.1-.1-.3a5.9 5.9 0 0 1 .4-.8c0-.1.1-.1.1-.2z"/><path d="m22 11.1c-.1 0-.1-.1-.2-.1-.2-.3-.3-.5-.5-.8-.1-.1 0-.1.1-.2l1.8-1.4c.4-.3.4-.3.7.1l.5.8c.1.2.1.2-.1.4l-2.2 1.2z"/><path d="m23.1 13.6c-.2 0-.3 0-.3-.2a3.09 3.09 0 0 0 -.2-.8c0-.1 0-.2.1-.2h.1l2.5-.8c.1 0 .2 0 .2.1a6.47 6.47 0 0 0 .4 1.3c0 .2-.1.2-.2.2l-1.5.3z"/><path d="m21 24.2-1.4.8c-.1 0-.2 0-.2-.1-.4-.8-.7-1.6-1.1-2.5 0-.1 0-.2.1-.2l.8-.4c.1-.1.1-.1.2 0z"/><path d="m20.4 20.9c.3-.3.5-.6.8-.9l.4.3 1.8 1.4c.2.1.2.2 0 .4l-.8.9c-.1.1-.2.2-.3 0z"/><path d="m7.5 23.1-1.1-1.1c-.1-.1-.1-.2 0-.2l2.1-1.6c.1-.2.2-.2.3-.2l.6.6a.19.19 0 0 1 0 .3z"/><path d="m6.8 13.6-1.5-.3-1-.2a.22.22 0 0 1 -.2-.2c.1-.4.2-.9.3-1.3 0-.2.1-.2.3-.2l2.4.9c.1 0 .2.1.1.2-.1.3-.1.5-.2.8s.1.3-.2.3z"/><path d="m15 4.1h.6c.1 0 .2 0 .2.2 0 .5-.1 1.1-.1 1.6 0 .3-.1.6-.1 1a.22.22 0 0 1 -.2.2h-.9c-.1 0-.2 0-.2-.1-.1-.8-.1-1.7-.2-2.5 0-.3 0-.3.3-.3z"/><path d="m14.2 23.5c-.1.7-.1 1.5-.2 2.2 0 .1-.1.2-.2.1-.5-.1-.9-.1-1.4-.2-.2 0-.1-.2-.1-.3.1-.5.3-1.1.4-1.6l.2-.8a.22.22 0 0 1 .2-.2l.8.1c.2 0 .3.1.2.3a.76.76 0 0 1 .1.4z"/><path d="m7 19.7a.5.5 0 1 1 -.5.5c0-.3.2-.4.5-.5z"/><path d="m14.8 7.6a7.5 7.5 0 1 0 .2 0zm.2 12.4a5.08 5.08 0 0 1 -5-5 5.22 5.22 0 0 1 5-5 5 5 0 0 1 0 10z"/><path d="m18.5 15.8a.68.68 0 0 0 -.8-.4h-.1a.64.64 0 0 1 -.6 0l-.2-.1c-.3-.1-.4-.2-.3-.5a1.49 1.49 0 0 0 -.4-.9l-.2-.2a.37.37 0 0 1 -.1-.3 1.15 1.15 0 0 1 .6-.9.52.52 0 0 0 .3-.7.63.63 0 0 0 -.6-.5c-.5 0-.8.3-.6.8a1.7 1.7 0 0 1 0 1c0 .2-.3.4-.5.4a1.61 1.61 0 0 0 -1.1.5c-.1.1-.2.2-.4.1s-.3-.2-.5-.3l-.3-.3-.3-.3a.76.76 0 0 0 -.9.1.61.61 0 0 0 0 .8.78.78 0 0 0 .8.2.64.64 0 0 1 .6 0l.2.1c.4.1.4.1.4.6v.1a1.35 1.35 0 0 0 .5.9c.2.1.2.4.1.6a1 1 0 0 1 -.5.6.76.76 0 0 0 -.3.9.67.67 0 0 0 .8.3.63.63 0 0 0 .3-.9.6.6 0 0 1 -.1-.4c0-.2.1-.3.2-.5s.2-.3.4-.3a1 1 0 0 0 1-.4.66.66 0 0 1 .7-.2 1 1 0 0 1 .6.5.67.67 0 0 0 .8.3c.5-.1.6-.4.5-.7zm-3.4-1.3h-.1a.46.46 0 0 0 -.4.5c0 .1-.1.2-.3.2s-.2-.1-.2-.3a1.09 1.09 0 0 1 .8-.8h.3c.1.1 0 .3-.1.4z"/></g><path d="m0 0h30v30h-30z" fill="none"/></svg>