<svg height="30" viewBox="0 0 30 30" width="30" xmlns="http://www.w3.org/2000/svg"><g fill="#919ef8"><path d="m16.7 17.5c-.1 0-.1.1-.2.2a.6.6 0 0 0 -.1.4c-.3 1.1-.5 2.3-.8 3.4 0 .2-.1.4-.1.6a.22.22 0 0 0 .2.2c.1 0 .3-.1.3-.2a.9.9 0 0 0 .1-.5c.2-1 .4-1.9.6-2.9.1-.3.1-.6.2-1s0-.3-.2-.2z"/><path d="m26.5 14c-.5.4-.4.4-.7.5a2.57 2.57 0 0 1 -1.5.1 2.23 2.23 0 0 1 -1.8-1 1.93 1.93 0 0 1 -.3-1 1.55 1.55 0 0 1 .5-1.4 2.84 2.84 0 0 1 1-.9 4.71 4.71 0 0 0 1.3-1.5 3.32 3.32 0 0 0 -.1-2.4 3.68 3.68 0 0 0 -2.1-2.3s1.4 1.8 1.3 2.9a2.29 2.29 0 0 1 -2.3 2.1 4.21 4.21 0 0 1 -2.6-1 4.71 4.71 0 0 1 -1.1-2.6 3.36 3.36 0 0 1 .4-2.2 4 4 0 0 1 2.6-1.4 5 5 0 0 0 -3.4.5 3.38 3.38 0 0 0 -1.5 4c.2.8 1.3 3 1.3 4 0 .8-.4 3.3-2.1 3.6a2.22 2.22 0 0 1 -1.6-.1c-1.6-.9-1.5-3.5-1.3-4.4a6.33 6.33 0 0 0 -.1-4.5 4.83 4.83 0 0 0 -1.4-2 25.14 25.14 0 0 0 -2.9-2 12.29 12.29 0 0 1 2.3 3.6 4.7 4.7 0 0 1 -1.3 4.2 15.19 15.19 0 0 0 -1.8 1.8 15.72 15.72 0 0 0 -1.9 2.6v-.1c-.1-.2-.3-.6-.4-.6-1.2-1.3-3.2-.6-3.5-.6.3 0 2.1.2 2.5 1.5a10.59 10.59 0 0 1 .5 3.1 6.6 6.6 0 0 0 -.1 1.4 11.13 11.13 0 0 0 21.5 4 13.41 13.41 0 0 0 1-4.4 10.68 10.68 0 0 1 .3-2.5 2.26 2.26 0 0 1 1.3-1.4 1.71 1.71 0 0 0 -2 .4zm-13.7 9.2-2 .1c.2-1 .4-1.9.6-2.9h-.6c-.1.3-.1.6-.2.8l-.4 2a.1.1 0 0 1 -.1.1h-1.9a6.37 6.37 0 0 1 .2-.7c.4-1.6.7-3.3 1.1-5l.2-1.1a.1.1 0 0 1 .1-.1h1.9a20.48 20.48 0 0 0 -.5 2.4h.6l.5-2.4h2c0 .2-.1.4-.1.6l-1.2 5.4a1.88 1.88 0 0 0 -.2.8zm6.2-5.3c-.2.9-.3 1.7-.5 2.5l-.3 1.2a1.91 1.91 0 0 1 -1.6 1.5 3.55 3.55 0 0 1 -1 .2 3.59 3.59 0 0 1 -1.1-.2 1.23 1.23 0 0 1 -.8-1.4 18.92 18.92 0 0 1 .5-2.3 12.44 12.44 0 0 1 .4-1.6 2.07 2.07 0 0 1 1.5-1.5 3.4 3.4 0 0 1 2 0 1.47 1.47 0 0 1 .9 1.6zm4.7-.1h-1.2l-1.2 5.4h-2c.4-1.8.8-3.6 1.2-5.5h-1.1l.3-1.4h4.3z"/><path d="m6.2 9.4a3.92 3.92 0 0 1 -.8-1 1.53 1.53 0 0 1 .2-1.3c.6-.9 1.2-1.3 1.3-1.8a2.75 2.75 0 0 0 -.5-1.9 15.58 15.58 0 0 1 1.6 2 1.79 1.79 0 0 1 -.2 2.1c-.3.3-1.2.5-1.4 1a1.49 1.49 0 0 0 -.2.9z"/></g><path d="m0 0h30v30h-30z" fill="none"/></svg>