<svg enable-background="new 0 0 18 18" viewBox="0 0 18 18" xmlns="http://www.w3.org/2000/svg"><g fill="#e4ff23"><path d="m11.9 7.9c-.1.2-.3.5-.4.7l-.5-.7c.3.1.6.1.9 0z"/><path d="m17.8 2.6c0-.3-.3-.4-.5-.5l-3.1-.8-3.9-1c-.3-.1-.6 0-.7.3v.1.1c-.4 1.7-.8 3.3-1.3 4.9 0 .1 0 .1.2.2.5.3 1 .7 1.5 1.1l.1.1v-.2c0-.6.3-1.2.9-1.5.6-.4 1.3-.8 2-1.1.1-.1.2 0 .2.1l.3.5.9 1.4c.3.5.3 1.2 0 1.7-.1.3-.4.5-.7.5-.4.1-.8-.1-1.1-.4 0 0-.1-.1-.1-.1 0 .4.1.9.1 1.3l-.8-.2v.1c.5 1 .7 2.1.7 3.3 0 .1 0 .1.1.2l1.9.5c.3.1.7-.1.8-.4v-.1l2.5-9.7c0-.1 0-.3 0-.4zm-7.2.4c-.1.1-.2.1-.3.1h-.1c-.1.2-.1.2-.3.1v-.1c0-.1-.1-.2-.1-.4 0 0 0-.1.1-.1.1-.1.3-.2.4-.3h.1s.1.3.2.4.1.2 0 .3zm0-1c0-.1-.1-.1-.1-.1-.1 0-.1 0-.2 0s-.1.1-.3 0l.2-.2.4-.4c.1-.1.1-.1.2 0 .1.3.1.6.1.9-.3 0-.3 0-.3-.2zm4.2 9.6-.5.6s-.1 0-.1.1v-.1c-.1-.3-.1-.6-.1-.8s.2 0 .2.2.1.1.1.1h.2c.1-.2.1-.2.2-.1zm0-.6-.2.1c-.1.1-.1 0-.2 0-.1-.1-.1-.2-.2-.3s0-.2.1-.3h.1c.1 0 .2 0 .2-.2l.2.1-.1.1c.4.2.4.3.1.5z"/><path d="m5.9 6.2c-3.2 0-5.7 2.6-5.7 5.7s2.6 5.7 5.7 5.7c3.2 0 5.7-2.6 5.7-5.7.1-3.1-2.5-5.7-5.7-5.7zm3.9 4c.1.1.1.2 0 .3l-.6 1.5c0 .1-.1.2-.3.2l-1.6.1c-.1 0-.2 0-.3-.1-.4-.6-.8-1.1-1.2-1.7 0-.1 0-.2 0-.3.2-.5.4-1 .7-1.5 0-.1.1-.2.2-.1h.8l.7-.1c.6 0 .5 0 .8.4s.5.8.8 1.3zm-3 2.4c-.3.6-.5 1.1-.7 1.7 0 .1-.1.1-.2.1-.7.1-1.3.1-2 .2-.1 0-.1 0-.2-.1-.3-.5-.7-1-1-1.6 0-.1 0-.1 0-.2.3-.5.5-1.1.8-1.7 0-.1.1-.1.2-.1l1.8-.3s.1.1.2.1c.4.6.8 1.1 1.2 1.7 0 .1 0 .1-.1.2zm-2-5.4c.1-.1.1-.3.2-.4 0-.1.1-.2.2-.2l.8-.1c.9 0 1.7.2 2.5.7.1.1.2.2.3.3v.1s-.1.2-.1.3-.1.2-.2.2h-.8c-.3 0-.7 0-1 0-.2 0-.3 0-.5-.1-.4-.2-.8-.4-1.3-.6 0 0-.1-.1-.1-.2zm-.2-.5c0 .1-.1.2-.1.3 0 .2-.2.4-.4.5-.3.4-.7.7-1.1 1-.2.1-.5.2-.7.3-.2 0-.5 0-.7.1.7-1.1 1.8-1.9 3-2.2zm-2.4 6.1-1.1.2c-.1 0-.1 0-.1 0-.1-.5-.3-1-.4-1.4v-.1s0-.2.1-.3c.2-.6.5-1.2.7-1.8 0-.1.1-.2.2-.2l.9-.1c.1 0 .2 0 .2.1.2.5.3 1 .5 1.4v.2l-.8 1.8c0 .1-.1.2-.2.2zm.4 3.4c.2-.1.7.2.8.5zm4.2.8-1.6.2c-.3 0-.5 0-.8-.2s-.6-.5-.9-.7c-.1 0-.2-.2-.1-.3.1-.3.2-.6.3-.9.1-.1.2-.1.3-.1l2-.2c.1 0 .2.1.3.1.4.3.8.6 1.3.9.1.1.1.1 0 .2l-.6.9c0 .1-.1.1-.2.1zm3.3-1.8c-.6.7-1.2 1.2-2 1.6-.1.1-.3.2-.5.2-.1 0-.1 0-.2 0 0-.1 0-.1.1-.2l.3-.6c.2-.2.3-.4.5-.5.4-.3.8-.6 1.2-.9.2-.1.4-.2.6-.1.1 0 .3 0 .4.1-.1.1-.2.3-.4.4zm.7-1c-.1.2-.1.2-.3.2h-.5c-.1 0-.1-.1-.1-.1-.1-.6-.2-1.1-.3-1.7 0-.1 0-.2 0-.3.2-.5.4-1 .6-1.5.1-.2.1-.2.3-.1h.4c.1 0 .2.1.2.2.2.4.3.9.3 1.4-.1.5-.3 1.2-.6 1.9z"/><path d="m4.2 5.4c-.3-.7-.6-1.4-.9-2.1 0-.1-.1-.2-.3-.2l-1.2-.1-1.2-.1c0 .1 0 .1.1.1l1.1 1.9c.1.1.2.2.3.2l1.5.3.7.1zm-1.8-.6s-.1.1-.2.1-.2 0-.3-.1c0-.1 0-.1 0-.2h.2c.1 0 .2.1.2.2zm.3-.6s-.1.1-.2.1-.2-.1-.3-.2c0 0 0-.1 0-.2s.1-.1.2-.1c.1 0 .1.1.2.2s.1.2.1.2zm.3-.6s-.1.1-.2.1-.2-.1-.3-.2-.1-.2 0-.2.2-.1.3 0 .1.1.2.1 0 .1 0 .2z"/><path d="m5.8 3.3c-.2-.6-.3-1.1-.5-1.7-.1-.1-.1-.3-.2-.5h-.1l-1.4 1.8c-.1.1-.1.2 0 .3l1 2.1s0 .1.1.1l.1-.2 1-1.7s0-.1 0-.2zm-1.5 0c0 .1-.1.1-.2.1s-.1-.2-.1-.2c0-.1.1-.2.1-.2s.1-.1.2-.1 0 .1.1.1c-.1.1-.1.2-.1.3zm.5 1.4c0 .1-.1.1-.1.1s-.1 0-.1-.1c-.1-.2 0-.4.2-.5.1.2.1.4 0 .5zm.1-1.2c-.1 0-.1 0-.2 0 0-.1 0-.1 0-.2s.1-.2.1-.3.1 0 .2 0c.1.2 0 .4-.1.5zm.1-1.2h-.1s-.1-.1-.1-.1 0-.2.1-.3c0 0 .1-.1.1-.1s.1 0 .1.1c.1.1 0 .3-.1.4zm.5 1.3s-.1.1-.1.1c-.1-.1-.1-.2-.1-.3s0-.1.1-.2c0 0 .1-.1.2-.1s.1.1.1.2c-.1.1-.1.2-.2.3z"/><path d="m4.7.9-2.1.1c-.1 0-.2 0-.3.1l-1.4 1.4-.2.1h.1l.9.1 1.3.1c.1 0 .3 0 .4-.1l1.1-1.3c.1-.1.3-.3.4-.5zm-2.2 1c.1-.2.3-.3.5-.2 0 .2-.3.3-.5.2z"/><path d="m10.6 1.8h-.2l.1-.2z"/><path d="m14.2 12c0-.1 0-.1 0-.2 0 0 0 0 0-.1h.1v.1s-.1.1-.1.2z"/></g><path d="m0 0h18v18h-18z" fill="none"/></svg>