<svg height="30" viewBox="0 0 30 30" width="30" xmlns="http://www.w3.org/2000/svg"><path d="m29 13.8a15.72 15.72 0 0 0 -.4-2.3 12.66 12.66 0 0 0 -1.3-3.2 13.11 13.11 0 0 0 -2-2.8 12.94 12.94 0 0 0 -1.7-1.5 14.28 14.28 0 0 0 -5.1-2.5 10.32 10.32 0 0 0 -3-.4 21.75 21.75 0 0 0 -2.6.1 14.19 14.19 0 0 0 -4 1.2 13.56 13.56 0 0 0 -3.4 2.3 17.87 17.87 0 0 0 -2.2 2.5 18.39 18.39 0 0 0 -1.9 4c-.1.8-.3 1.5-.4 2.3v2.4a4.87 4.87 0 0 0 .1 1.2 16 16 0 0 0 1.6 4.8 14.79 14.79 0 0 0 2.9 3.6 16.88 16.88 0 0 0 3.1 2.1 11.66 11.66 0 0 0 3.3 1.1l1.5.3h2.5a3.75 3.75 0 0 0 1-.1 13.61 13.61 0 0 0 4.8-1.6 14.39 14.39 0 0 0 5-4.5 14 14 0 0 0 1.5-3 12.28 12.28 0 0 0 .8-3.8 17 17 0 0 0 -.1-2.2zm-15.5 7.7h-4.2c-.3 0-.7-.2-.7-.5v-4.4a.75.75 0 0 1 .5-.7h4.4a.75.75 0 0 1 .7.5v4.5a.75.75 0 0 1 -.5.7c-.1-.1-.1-.1-.2-.1zm.7-7.5a.75.75 0 0 1 -.5.7h-4.4a.75.75 0 0 1 -.7-.5v-4.5a.59.59 0 0 1 .5-.7h4.5a.75.75 0 0 1 .7.5v4.5zm6.9 6.8a.73.73 0 0 1 -.6.7h-4.4a.75.75 0 0 1 -.7-.5v-4.4a.75.75 0 0 1 .5-.7h4.4a.75.75 0 0 1 .7.5v4.4zm.1-8.3-2.6 2.5a.76.76 0 0 1 -.4.2.52.52 0 0 1 -.4-.2l-2.6-2.6a.61.61 0 0 1 0-.8l2.6-2.6a.61.61 0 0 1 .8 0c.9.8 1.7 1.7 2.5 2.5a.67.67 0 0 1 .1 1z" fill="#919ef8"/><path d="m0 0h30v30h-30z" fill="none"/></svg>