<svg height="30" viewBox="0 0 30 30" width="30" xmlns="http://www.w3.org/2000/svg"><g fill="#919ef8"><path d="m28 19.7c0-.1 0-.2-.2-.2-.5.1-.9.1-1.4.2-.2 0-.2-.1-.3-.2-.1-.4-.2-.9-.3-1.3a3 3 0 0 0 -.4-.8c-.1-.2 0-.3.1-.4l1.2-.7c.1-.1.1-.1.1-.3a8.39 8.39 0 0 0 -5.2-4c-.3-.1-.3-.1-.3.2s-.2.9-.3 1.3c0 .2-.1.2-.3.2a7.39 7.39 0 0 0 -2.1 0c-.2.1-.3 0-.3-.2l-.2-1.5v-.1l.5-.1c.5 0 1-.1 1.5-.1.2 0 .2-.1.2-.3v-9.3a1.63 1.63 0 0 0 -1.3-1.1h-13.1a1.74 1.74 0 0 0 -1.2 1.4v.5a.27.27 0 0 1 -.3.3 4.87 4.87 0 0 0 -1.2.1 1.24 1.24 0 0 0 -1.2 1.3v19.4a1.75 1.75 0 0 0 .4 1.2 1.61 1.61 0 0 0 1.1.5h9.2a.91.91 0 0 1 .8.4.1.1 0 0 0 .1.1l.1-.1 1.1-1c.2-.2.2-.2.3 0a4.43 4.43 0 0 0 1.5 1.2c.5.3.5.3.2.8s-.3.7-.5 1c-.1.1 0 .2.1.3a6 6 0 0 0 1.9.6c.3 0 .7.1 1 .1h1.2a5.45 5.45 0 0 0 2.2-.5c.5-.2.5-.2.3-.7a5.82 5.82 0 0 0 -.5-1.1c0-.1-.1-.2.1-.2a6.22 6.22 0 0 0 1.9-1.4l.1-.1.4.3.9.8c.1.1.1.1.2 0a9.48 9.48 0 0 0 2-4.3 17 17 0 0 1 -.1-2.2zm-14-2.3a6.64 6.64 0 0 0 -.6 2c0 .3-.1.4-.4.3a4.48 4.48 0 0 0 -1.2-.1c-.1 0-.2 0-.2.2a9.38 9.38 0 0 0 .4 3.7l.3.9h-8.1a.75.75 0 0 1 -.7-.5v-18.5a.75.75 0 0 1 .5-.7h11.5a.58.58 0 0 1 .6.6v7.1a.52.52 0 0 1 -.2.4 8.22 8.22 0 0 0 -3.3 3.1c-.1.1-.1.2.1.3a10.54 10.54 0 0 1 1.1.7c.3.2.3.2.2.5zm8.3 7.5a5.68 5.68 0 0 1 -2.2.7 5 5 0 0 1 -5.2-4.1 5.21 5.21 0 0 1 2.2-5.4 5.38 5.38 0 0 1 2.8-.8 4.93 4.93 0 0 1 4.8 3.8c.1.3.1.7.2 1a6.13 6.13 0 0 1 -2.6 4.8z"/><path d="m9.8 13.1c.2-.2.3-.4.5-.5a1.15 1.15 0 0 1 1.7 0 .86.86 0 0 1 .3.6 1.13 1.13 0 0 1 -.3 1.1c-.7.8-1.5 1.6-2.2 2.3h-.2c-.7-.7-1.4-1.5-2.1-2.2a1.27 1.27 0 0 1 0-1.8.86.86 0 0 1 .6-.3 1.13 1.13 0 0 1 1.1.3 2.65 2.65 0 0 1 .6.5z"/><path d="m19.7 17.4.7.6 1.6 1.6a1.15 1.15 0 0 1 -.1 1.7 2.19 2.19 0 0 1 -.5.3 1.13 1.13 0 0 1 -1.1-.3l-.3-.2h-.1v.5a1.59 1.59 0 0 0 .8 1c.1 0 .1.1.2.1v.1h-.3a5.44 5.44 0 0 0 -1.8 0h-.2l.2-.2a1.46 1.46 0 0 0 .7-1.3v-.2c-.1.1-.2.1-.2.2a1.79 1.79 0 0 1 -.7.5 1.24 1.24 0 0 1 -1.5-.8 1.31 1.31 0 0 1 .3-1.2l1.8-1.8c.2-.2.3-.4.5-.6z"/><path d="m7.3 9.3c-.3-1-.6-1.9-.9-2.9 0-.1-.2-.2-.3-.2a.27.27 0 0 0 -.3.3 5.23 5.23 0 0 0 -.6 1.6 5.78 5.78 0 0 1 -.5 1.4c.2.2.3.1.4-.1a1.42 1.42 0 0 0 .2-.6c0-.1.2-.2.3-.2h.8c.1 0 .3.1.3.2a1.42 1.42 0 0 1 .2.6c0 .2.1.2.3.2s.1-.2.1-.3zm-1.8-1.1c.2-.5.3-1.1.5-1.6h.1c.2.5.3 1 .5 1.6z"/></g><path d="m0 0h30v30h-30z" fill="none"/></svg>