<svg height="30" viewBox="0 0 30 30" width="30" xmlns="http://www.w3.org/2000/svg"><g fill="#919ef8"><path d="m29 6a3.55 3.55 0 0 1 -.4.9 1.47 1.47 0 0 1 -.5.6.76.76 0 0 0 -.2.5v10.8a2.17 2.17 0 0 1 -1.9 2.2c-.1 0-.1-.1-.1-.2v-12.8a.52.52 0 0 0 -.2-.4 2 2 0 0 1 -.8-2.3 2.29 2.29 0 0 1 1.9-1.5 2 2 0 0 1 1.9 1.2l.3.6c.1.2 0 .3 0 .4z"/><path d="m23.6 16.6c-.5 0-.5 0-.5-.5v-6.2a.75.75 0 0 0 -.5-.7 1.48 1.48 0 0 0 -.7-.1h-2.3c-.1 0-.3-.1-.4-.1a.9.9 0 0 1 .1-.5.78.78 0 0 1 .4-.4l.6-.7c.2-.1.2-.4.1-.6a.37.37 0 0 0 -.3-.1l-1.4-.3a.85.85 0 0 1 -.5-.3 10.91 10.91 0 0 1 -.6-1.1.49.49 0 0 0 -.9 0l-.4.6c-.1.1-.2.2-.3.2l-2-.6a1.38 1.38 0 0 1 -.4-.3c-.4-.6-.7-1.2-1.1-1.8-.3-.4-.6-.4-.8 0s-.6 1.1-.9 1.6c-.1.1-.1.3-.2.4a.52.52 0 0 1 -.4.2 15.52 15.52 0 0 0 -2.1.4c-.2.1-.3 0-.4-.2a2.51 2.51 0 0 0 -.4-.7.45.45 0 0 0 -.6-.2q-.15 0-.3.3a10.91 10.91 0 0 0 -.6 1.1.46.46 0 0 1 -.5.3l-1.3.3c-.3 0-.4.3-.4.5s.1.2.2.3a10 10 0 0 0 1 1.1c.1.1.2.2.1.4s-.2.1-.4.1h-2c-.9 0-1.1.2-1.5 1v16.4l.2.3a1.05 1.05 0 0 0 .9.5h19.9a1.19 1.19 0 0 0 1.2-1v-3c0-.3 0-.3.3-.3h.5c.1 0 .3-.1.3-.2v-5.6c0-.5-.1-.5-.7-.5zm-7.9-9.2a.76.76 0 0 1 .4-.2.75.75 0 0 0 .7-.5c.1-.2.2-.3.3-.5s.2-.2.3 0 .1.2.2.3a1.27 1.27 0 0 0 .9.7l.3.1c.3.1.3.1.1.4s-.2.2-.3.3a1 1 0 0 0 -.3 1v.3c0 .2-.1.2-.2.2l-.5-.2a1.1 1.1 0 0 0 -.8 0c-.2.1-.3.2-.5.3h-.1c-.1 0-.1-.1-.1-.2v-.7a.88.88 0 0 0 -.1-.7l-.3-.3c-.1-.1 0-.3 0-.3zm-6.4-1c.4-.1.9-.2 1.4-.3a.68.68 0 0 0 .6-.4c.2-.4.4-.7.6-1.1.1-.1.1-.3.3-.3a.2.2 0 0 1 .2.2c.2.5.4.9.6 1.3a.55.55 0 0 0 .5.3l1.4.3c.2 0 .2.2.1.3l-.9.9a1 1 0 0 0 -.3 1 5 5 0 0 1 .2 1.2c0 .4 0 .3-.3.2a4.67 4.67 0 0 1 -1-.5 1.28 1.28 0 0 0 -1.2 0c-.3.2-.7.3-1 .5s-.4.1-.3-.1c.1-.5.1-.9.2-1.3a.81.81 0 0 0 -.3-.9 9 9 0 0 1 -.9-1c-.3-.4-.1-.3.1-.3zm-4 .9c.2 0 .5-.1.7-.1s.3-.1.4-.3a2.19 2.19 0 0 1 .3-.5c.1-.1.3-.2.4 0l.3.5a1.38 1.38 0 0 0 .4.3c.2 0 .3.1.5.1s.3.2.1.4l-.3.4a1.27 1.27 0 0 0 -.1.6 1.27 1.27 0 0 0 .1.6c.1.2-.1.2-.3.1s-.3-.1-.5-.2a1.1 1.1 0 0 0 -.8 0 .76.76 0 0 1 -.5.2c-.2.1-.3 0-.3-.2v-.4a.81.81 0 0 0 -.3-.9l-.3-.3c0-.2 0-.3.2-.3zm11.4 16.8h-9.1c-.4 0-.4 0-.4-.4v-.5c0-.3.1-.3.3-.3h9.2c.3 0 .4 0 .4.4v.5c-.1.3-.1.3-.4.3zm4.4-4.8c0 .4-.1.5-.5.5h-17c-.4 0-.5-.1-.5-.6v-7.5c0-.5.1-.7.7-.7h16.8c.5 0 .5.1.6.6v7.5a.31.31 0 0 0 -.1.2z"/><path d="m14.4 15.5v-2.9c0-.2 0-.3-.2-.3h-4.1c-.2 0-.3 0-.3.3v5.8c0 .2 0 .3.3.3h4c.3 0 .3 0 .3-.3zm-.8 0-1.4 1.2a.19.19 0 0 1 -.3 0l-1.4-1.2a.37.37 0 0 1 -.1-.3.89.89 0 0 1 1-.6h1.5a.52.52 0 0 1 .4.2c.1.1.2.3.3.4a.19.19 0 0 1 0 .3z"/><path d="m8.7 15.4v-3c0-.2 0-.2-.2-.2h-4.1c-.2 0-.2.1-.2.2v6c0 .2.1.2.2.2h4.1c.2 0 .2-.1.2-.2zm-.8 0-1.4 1.2a.19.19 0 0 1 -.3 0l-1.4-1.2a.3.3 0 0 1 0-.4 1.38 1.38 0 0 1 .3-.4.37.37 0 0 1 .3-.1h2a.52.52 0 0 1 .4.2l.2.4c.1.1.1.3-.1.3z"/><path d="m20 12.6c0-.3 0-.3-.3-.3h-4c-.3 0-.3 0-.3.3v5.8c0 .3 0 .3.3.3h4c.3 0 .3 0 .3-.3zm-.7 2.8-1.3 1.2a.3.3 0 0 1 -.4 0 12.67 12.67 0 0 0 -1.3-1.1c-.1-.1-.1-.2 0-.4s.1-.1.1-.2a.63.63 0 0 1 .8-.4h1.7c.1 0 .3.1.3.2s.2.3.3.4 0 .3-.2.3z"/></g><path d="m0 0h30v30h-30z" fill="none"/></svg>