<svg height="27.89" viewBox="0 0 27.94 27.89" width="27.94" xmlns="http://www.w3.org/2000/svg"><g fill="#919ef8"><path d="m14.9 9.6-.1.1-4 3.3a.37.37 0 0 1 -.3.1l-4.9-1.2a.22.22 0 0 1 -.2-.2l-.6-3.9a.6.6 0 0 1 .1-.4l1.6-1.7a31.12 31.12 0 0 1 2.8-2.3.47.47 0 0 1 .6-.1l3.9 1.2a.22.22 0 0 1 .2.2 24.37 24.37 0 0 1 .6 2.6 18.1 18.1 0 0 1 .3 2.3z"/><path d="m5.4 12.5a7.49 7.49 0 0 1 1.6.4l3.3.7a.22.22 0 0 1 .2.2l1.9 5.4a.37.37 0 0 1 -.1.3l-2.7 3.3a.37.37 0 0 1 -.3.1l-4.2-1.2a.35.35 0 0 1 -.2-.1 16.87 16.87 0 0 1 -2-5.7.37.37 0 0 1 .1-.3l2.3-3a.1.1 0 0 1 .1-.1z"/><path d="m14.6 4.6a5.39 5.39 0 0 1 1.3-.7c.6-.4 1.3-.7 2-1.1h.3a19.21 19.21 0 0 1 5 2.9c.1.1.2.2.2.3.1 1.5.2 2.9.3 4.4 0 .1 0 .2-.2.3l-3.3 2a.19.19 0 0 1 -.3 0l-4.2-2.8a.77.77 0 0 1 -.2-.3 20.18 20.18 0 0 0 -.9-4.9z"/><path d="m10.1 23.1 2.6-3.2.1-.1c.4-.5.4-.5 1-.5 1.5-.1 2.9-.2 4.4-.4.2 0 .4 0 .5.2.7.9 1.5 1.8 2.2 2.7a.19.19 0 0 1 0 .3c-.7 1-1.5 2-2.2 3l-.2.2a23.25 23.25 0 0 1 -2.8.5 10.28 10.28 0 0 1 -1.7.1h-1.8c-.1 0-.1 0-.2-.1z"/><path d="m26.2 14a13.52 13.52 0 0 1 -.4 2.9 12.32 12.32 0 0 1 -1.4 3.1 1 1 0 0 1 -.5.4l-2.3 1.1c-.1.1-.2 0-.3-.1-.8-1-1.6-1.9-2.4-2.9a.37.37 0 0 1 -.1-.3l1.2-4.8a.22.22 0 0 1 .2-.2l3.6-2.1c.1-.1.2-.1.2 0l2 2.3c.3.2.2.4.2.6z"/><path d="m9.8.3a21.72 21.72 0 0 1 -.7 2.4c0 .1 0 .2-.1.2a7.63 7.63 0 0 1 -1.1.8 15.2 15.2 0 0 0 -3.2 3 2.1 2.1 0 0 1 -1.1.8 14.13 14.13 0 0 0 -2.2.6h-.3a14.29 14.29 0 0 1 8.7-7.8z"/><path d="m4.2 23.9a13.36 13.36 0 0 1 -4.2-10.2l.1.1 1.9 1.9a.31.31 0 0 1 .1.2 14.2 14.2 0 0 0 2 5.3 2 2 0 0 1 .3 1.1c-.1.6-.1 1.1-.2 1.6z"/><path d="m25.5 5.7a6.75 6.75 0 0 0 -1.4-.2.76.76 0 0 1 -.5-.2c-.6-.5-1.3-.9-1.8-1.4a10.49 10.49 0 0 0 -2.8-1.4 3 3 0 0 1 -1-.4c-.2-.3-.4-.5-.6-.8s-.5-.9-.8-1.3a16.9 16.9 0 0 1 5 2 17.14 17.14 0 0 1 3.9 3.7z"/><path d="m21.1 25.9-.5.4a11 11 0 0 1 -4.4 1.5 16.16 16.16 0 0 1 -6.2-.5h-.1l.1-.1 1.6-.7h.3c1.2 0 2.4.1 3.7.1a21.66 21.66 0 0 0 2.5-.4 3.44 3.44 0 0 1 1.4-.1h1.6z"/><path d="m25.2 22.3-.3-1.9c0-.1 0-.2.1-.2l1.2-2.4a10.16 10.16 0 0 0 .6-3.4v-.4a2.83 2.83 0 0 1 .4-1.8c.2-.3.3-.6.5-.9a14.35 14.35 0 0 1 -2.5 11z"/></g></svg>